<svg width="88" height="40" viewBox="0 0 88 40" fill="none" xmlns="http://www.w3.org/2000/svg">
<g clip-path="url(#clip0_3023_5720)">
<path d="M6.48901 14.1953C8.0439 13.5243 9.52037 13.1622 11.0794 13.1022C16.9157 12.8777 22.0727 17.219 22.7849 22.9947C22.8544 23.5462 22.8906 24.1014 22.8935 24.6573C22.9021 28.4206 22.9021 32.184 22.8935 35.9473C22.8879 37.5813 21.6666 38.9146 20.038 39.1192C18.4529 39.3178 16.9338 38.3151 16.5264 36.7698C16.4368 36.4299 16.4285 36.0614 16.428 35.7076C16.4211 32.0439 16.428 28.3801 16.422 24.7159C16.4187 22.9065 15.7515 21.3949 14.2226 20.3747C12.6139 19.3005 10.8753 19.1984 9.16123 20.0976C7.3748 21.0333 6.51083 22.5938 6.49737 24.5843C6.47232 28.3076 6.49366 32.0314 6.48484 35.7547C6.47881 38.3789 3.92446 39.9699 1.68841 38.7271C0.522366 38.0805 -9.85133e-05 37.0358 0.0012935 35.7076C0.00748025 29.6945 0.00824453 23.6813 0.00360447 17.6679C0.00360447 12.8893 -0.00567157 8.11018 0.0077846 3.33158C0.0142807 0.90648 2.38071 -0.669758 4.56943 0.300096C5.89463 0.887088 6.4904 1.96824 6.48855 3.40178C6.4836 6.76702 6.4836 10.1321 6.48855 13.497L6.48901 14.1953Z" fill="url(#paint0_linear_3023_5720)"/>
<path d="M72.2447 28.8426C72.2447 30.193 72.2447 31.5434 72.2447 32.8938C72.2447 33.9099 72.2516 34.9259 72.2363 35.942C72.208 37.7995 70.8244 39.1771 69.0147 39.1651C67.1935 39.1531 65.7528 37.7182 65.7495 35.8912C65.7436 32.0678 65.7436 28.2446 65.7495 24.4215C65.7495 17.4124 65.7495 10.4031 65.7495 3.39367C65.7495 1.60452 66.8483 0.311383 68.6018 0.0365914C70.0606 -0.194326 71.5839 0.719648 72.0354 2.14025C72.1607 2.55869 72.2217 2.99357 72.2164 3.43015C72.2257 9.02575 72.2266 14.6212 72.2192 20.2165C72.2192 20.4132 72.2359 20.6095 72.2507 20.9365C72.4985 20.7744 72.673 20.67 72.8367 20.5518C76.0059 18.2564 79.1611 15.9417 82.3489 13.6704C84.1845 12.3616 86.6558 13.2206 87.2808 15.333C87.6845 16.6978 87.1416 18.099 85.912 18.9206C83.1737 20.7531 80.4398 22.5912 77.7102 24.4349C77.5631 24.5342 77.4267 24.6496 77.2123 24.8131C78.029 25.5631 78.8131 26.2873 79.6024 27.0064C82.0075 29.197 84.4129 31.387 86.8186 33.5764C88.181 34.8234 88.2459 36.8684 86.9875 38.1736C85.7291 39.4787 83.6778 39.5069 82.3526 38.2424C79.2345 35.2663 76.118 32.2884 73.0033 29.3086C72.8084 29.1239 72.6066 28.9429 72.408 28.7604L72.2447 28.8426Z" fill="url(#paint1_linear_3023_5720)"/>
<path d="M59.0586 23.3712C59.105 25.5252 59.1342 27.6847 58.4136 29.7542C56.3836 35.5807 52.3003 39.057 46.1606 39.8652C39.3968 40.756 33.2645 37.1565 30.647 30.9901C29.9502 29.3542 29.5806 27.5988 29.559 25.8222C29.5348 24.07 29.5409 22.3168 29.5538 20.5646C29.5682 18.5381 31.0693 16.9508 33.0362 16.8552C35.0314 16.7577 36.7019 18.1317 36.8536 20.1836C36.9812 21.9076 36.874 23.6474 36.9227 25.3779C37.0132 28.6052 38.563 30.9107 41.5391 32.1668C46.2256 34.1486 51.5807 30.6793 51.7101 25.6088C51.7528 23.9369 51.7217 22.2628 51.7254 20.59C51.7305 18.6559 53.0279 17.123 54.8677 16.8759C56.7325 16.6252 58.4071 17.7179 58.9342 19.5587C59.0312 19.8968 59.047 20.2654 59.0535 20.621C59.0693 21.5391 59.0586 22.4554 59.0586 23.3712Z" fill="url(#paint2_linear_3023_5720)"/>
<path d="M29.552 10.2547C29.55 9.77152 29.6436 9.29268 29.8276 8.84557C30.0117 8.39846 30.2825 7.99185 30.6245 7.64899C30.9666 7.30614 31.3732 7.03376 31.8211 6.84746C32.269 6.66115 32.7494 6.56458 33.2349 6.56325C35.2301 6.55679 36.9116 8.20646 36.933 10.1887C36.9543 12.2096 35.3011 13.8879 33.2673 13.9083C32.7817 13.9135 32.2999 13.8229 31.8496 13.6417C31.3994 13.4605 30.9897 13.1923 30.6443 12.8526C30.2988 12.5128 30.0244 12.1083 29.8369 11.6624C29.6494 11.2165 29.5526 10.7381 29.552 10.2547Z" fill="url(#paint3_linear_3023_5720)"/>
<path d="M55.3725 6.55347C57.4438 6.54978 59.0743 8.1699 59.066 10.22C59.0576 12.2701 57.4768 13.844 55.4143 13.8532C53.3193 13.8625 51.7287 12.2909 51.7171 10.2006C51.7152 9.72188 51.8085 9.24751 51.9914 8.80477C52.1744 8.36203 52.4434 7.95964 52.7831 7.62072C53.1228 7.28181 53.5264 7.01305 53.9708 6.8299C54.4152 6.64674 54.8915 6.5528 55.3725 6.55347Z" fill="url(#paint4_linear_3023_5720)"/>
</g>
<defs>
<linearGradient id="paint0_linear_3023_5720" x1="-4.82252" y1="17.5917" x2="88.4176" y2="40.7402" gradientUnits="userSpaceOnUse">
<stop stop-color="#CF1C85"/>
<stop offset="1" stop-color="#65449A"/>
</linearGradient>
<linearGradient id="paint1_linear_3023_5720" x1="-1.03852" y1="2.35039" x2="92.2016" y2="25.4989" gradientUnits="userSpaceOnUse">
<stop stop-color="#CF1C85"/>
<stop offset="1" stop-color="#65449A"/>
</linearGradient>
<linearGradient id="paint2_linear_3023_5720" x1="-4.25407" y1="15.3029" x2="88.9856" y2="38.451" gradientUnits="userSpaceOnUse">
<stop stop-color="#CF1C85"/>
<stop offset="1" stop-color="#65449A"/>
</linearGradient>
<linearGradient id="paint3_linear_3023_5720" x1="-0.911342" y1="1.83915" x2="92.3283" y2="24.9873" gradientUnits="userSpaceOnUse">
<stop stop-color="#CF1C85"/>
<stop offset="1" stop-color="#65449A"/>
</linearGradient>
<linearGradient id="paint4_linear_3023_5720" x1="0.370654" y1="-3.32611" x2="93.6108" y2="19.8224" gradientUnits="userSpaceOnUse">
<stop stop-color="#CF1C85"/>
<stop offset="1" stop-color="#65449A"/>
</linearGradient>
<clipPath id="clip0_3023_5720">
<rect width="87.8873" height="40" fill="white"/>
</clipPath>
</defs>
</svg>
