<svg width="141" height="64" viewBox="0 0 141 64" fill="none" xmlns="http://www.w3.org/2000/svg">
<g clip-path="url(#clip0_3023_6182)">
<path d="M10.3826 22.7127C12.8704 21.639 15.2328 21.0597 17.7273 20.9636C27.0653 20.6045 35.3164 27.5505 36.456 36.7916C36.5672 37.6741 36.6252 38.5624 36.6298 39.4518C36.6436 45.4731 36.6436 51.4945 36.6298 57.5158C36.6208 60.1302 34.6668 62.2635 32.061 62.5908C29.5249 62.9086 27.0943 61.3043 26.4424 58.8319C26.2991 58.288 26.2858 57.6983 26.285 57.1323C26.2739 51.2703 26.285 45.4083 26.2754 39.5456C26.2702 36.6505 25.2026 34.2319 22.7564 32.5996C20.1824 30.8809 17.4006 30.7176 14.6582 32.1563C11.7999 33.6534 10.4175 36.1502 10.396 39.335C10.3559 45.2923 10.3901 51.2504 10.3759 57.2077C10.3663 61.4063 6.27932 63.952 2.70165 61.9635C0.83598 60.929 3.76911e-05 59.2575 0.00226492 57.1323C0.0121637 47.5114 0.0133866 37.8902 0.00596246 28.2687C0.00596246 20.623 -0.00887919 12.9764 0.0126507 5.33067C0.0230444 1.45051 3.80934 -1.07147 7.31128 0.480296C9.4316 1.41948 10.3848 3.14933 10.3819 5.44299C10.374 10.8274 10.374 16.2115 10.3819 21.5954L10.3826 22.7127Z" fill="white" fill-opacity="0.95"/>
<path d="M115.592 46.148C115.592 48.3087 115.592 50.4693 115.592 52.63C115.592 54.2556 115.603 55.8813 115.578 57.507C115.533 60.479 113.319 62.6832 110.424 62.664C107.51 62.6448 105.205 60.3489 105.199 57.4257C105.19 51.3083 105.19 45.1911 105.199 39.0742C105.199 27.8596 105.199 16.6448 105.199 5.4297C105.199 2.56706 106.957 0.498039 109.763 0.0583723C112.097 -0.311096 114.534 1.15126 115.257 3.42423C115.457 4.09373 115.555 4.78953 115.546 5.48807C115.561 14.441 115.563 23.3937 115.551 32.3462C115.551 32.661 115.578 32.975 115.601 33.4982C115.998 33.2388 116.277 33.0718 116.539 32.8827C121.61 29.2101 126.658 25.5066 131.758 21.8725C134.695 19.7784 138.649 21.1528 139.649 24.5327C140.295 26.7162 139.427 28.9582 137.459 30.2727C133.078 33.2048 128.704 36.1458 124.337 39.0956C124.101 39.2545 123.883 39.4392 123.54 39.7008C124.847 40.9009 126.101 42.0595 127.364 43.21C131.212 46.715 135.061 50.2191 138.91 53.7221C141.09 55.7173 141.194 58.9893 139.18 61.0775C137.167 63.1657 133.885 63.2108 131.764 61.1876C126.775 56.4259 121.789 51.6613 116.806 46.8936C116.494 46.5981 116.171 46.3084 115.853 46.0165L115.592 46.148Z" fill="white" fill-opacity="0.95"/>
<path d="M94.4938 37.3939C94.5681 40.8403 94.6148 44.2955 93.4619 47.6067C90.2138 56.9291 83.6806 62.4911 73.8571 63.7842C63.035 65.2096 53.2233 59.4504 49.0354 49.5841C47.9205 46.9667 47.3291 44.1581 47.2944 41.3154C47.2558 38.5119 47.2655 35.7069 47.2863 32.9034C47.3093 29.6609 49.711 27.1212 52.858 26.9682C56.0504 26.8123 58.7231 29.0106 58.9658 32.2937C59.17 35.0522 58.9985 37.8357 59.0765 40.6045C59.2212 45.7682 61.7009 49.457 66.4627 51.4669C73.961 54.6377 82.5292 49.0868 82.7363 40.974C82.8046 38.2991 82.7549 35.6204 82.7608 32.944C82.769 29.8493 84.8447 27.3968 87.7884 27.0015C90.7721 26.6002 93.4515 28.3485 94.2949 31.2939C94.45 31.8348 94.4753 32.4245 94.4857 32.9935C94.5109 34.4625 94.4938 35.9286 94.4938 37.3939Z" fill="white" fill-opacity="0.95"/>
<path d="M47.2833 16.4073C47.2799 15.6343 47.4298 14.8681 47.7242 14.1527C48.0187 13.4373 48.4519 12.7868 48.9992 12.2382C49.5465 11.6896 50.1971 11.2538 50.9137 10.9557C51.6304 10.6577 52.3991 10.5032 53.1758 10.501C56.3681 10.4907 59.0586 13.1302 59.0928 16.3017C59.1269 19.5353 56.4817 22.2205 53.2277 22.253C52.4507 22.2614 51.6798 22.1165 50.9594 21.8266C50.239 21.5367 49.5835 21.1075 49.0308 20.5639C48.4781 20.0204 48.039 19.3732 47.7391 18.6597C47.4391 17.9463 47.2842 17.1807 47.2833 16.4073Z" fill="white" fill-opacity="0.95"/>
<path d="M88.5961 10.4855C91.9102 10.4796 94.519 13.0718 94.5056 16.3519C94.4923 19.632 91.9629 22.1503 88.6629 22.1651C85.3109 22.1799 82.7659 19.6653 82.7474 16.3209C82.7444 15.5549 82.8936 14.7959 83.1863 14.0876C83.479 13.3792 83.9095 12.7353 84.453 12.1931C84.9965 11.6508 85.6423 11.2208 86.3533 10.9278C87.0643 10.6347 87.8265 10.4844 88.5961 10.4855Z" fill="white" fill-opacity="0.95"/>
</g>
<defs>
<clipPath id="clip0_3023_6182">
<rect width="140.62" height="64" fill="white"/>
</clipPath>
</defs>
</svg>
