<svg width="18" height="18" viewBox="0 0 18 18" fill="none" xmlns="http://www.w3.org/2000/svg">
<path d="M1.6875 7.87465H3.375V12.3747H2.25C2.10082 12.3747 1.95774 12.4339 1.85225 12.5394C1.74676 12.6449 1.6875 12.788 1.6875 12.9372C1.6875 13.0863 1.74676 13.2294 1.85225 13.3349C1.95774 13.4404 2.10082 13.4997 2.25 13.4997H15.75C15.8992 13.4997 16.0423 13.4404 16.1477 13.3349C16.2532 13.2294 16.3125 13.0863 16.3125 12.9372C16.3125 12.788 16.2532 12.6449 16.1477 12.5394C16.0423 12.4339 15.8992 12.3747 15.75 12.3747H14.625V7.87465H16.3125C16.4349 7.87453 16.5539 7.83449 16.6515 7.76061C16.7491 7.68673 16.8199 7.58305 16.8532 7.46528C16.8865 7.34751 16.8805 7.22209 16.8361 7.10805C16.7917 6.994 16.7113 6.89755 16.6071 6.83332L9.29461 2.33332C9.206 2.27884 9.10402 2.25 9 2.25C8.89598 2.25 8.794 2.27884 8.70539 2.33332L1.39289 6.83332C1.28871 6.89755 1.20831 6.994 1.1639 7.10805C1.11949 7.22209 1.11349 7.34751 1.14681 7.46528C1.18013 7.58305 1.25095 7.68673 1.34853 7.76061C1.4461 7.83449 1.56511 7.87453 1.6875 7.87465ZM4.5 7.87465H6.75V12.3747H4.5V7.87465ZM10.125 7.87465V12.3747H7.875V7.87465H10.125ZM13.5 12.3747H11.25V7.87465H13.5V12.3747ZM9 3.47238L14.3255 6.74965H3.67453L9 3.47238ZM17.4375 15.1872C17.4375 15.3363 17.3782 15.4794 17.2727 15.5849C17.1673 15.6904 17.0242 15.7497 16.875 15.7497H1.125C0.975816 15.7497 0.832742 15.6904 0.727252 15.5849C0.621763 15.4794 0.5625 15.3363 0.5625 15.1872C0.5625 15.038 0.621763 14.8949 0.727252 14.7894C0.832742 14.6839 0.975816 14.6247 1.125 14.6247H16.875C17.0242 14.6247 17.1673 14.6839 17.2727 14.7894C17.3782 14.8949 17.4375 15.038 17.4375 15.1872Z" fill="#19052F" fill-opacity="0.5"/>
</svg>
