<svg width="18" height="18" viewBox="0 0 18 18" fill="none" xmlns="http://www.w3.org/2000/svg">
<path d="M16.7197 3.7427C16.2798 3.27162 15.7478 2.89601 15.1567 2.6392C14.5656 2.3824 13.928 2.24988 13.2835 2.24988C12.639 2.24988 12.0014 2.3824 11.4103 2.6392C10.8192 2.89601 10.2872 3.27162 9.84733 3.7427C9.5086 4.09808 9.22321 4.50071 9.00006 4.93801C8.778 4.50093 8.4938 4.09831 8.15631 3.7427C7.71648 3.27162 7.18448 2.89601 6.59336 2.6392C6.00224 2.3824 5.36463 2.24988 4.72014 2.24988C4.07565 2.24988 3.43804 2.3824 2.84692 2.6392C2.2558 2.89601 1.7238 3.27162 1.28397 3.7427C1.22159 3.80823 1.17595 3.88784 1.1509 3.97477C1.12585 4.0617 1.12214 4.15339 1.14008 4.24207C1.15802 4.33074 1.19708 4.41377 1.25396 4.48413C1.31083 4.55449 1.38384 4.61009 1.46678 4.64622L5.41412 6.36676C4.12864 6.71046 3.03212 7.5503 2.36537 8.70184C2.03086 9.27266 1.81376 9.90456 1.72683 10.5604C1.63989 11.2163 1.68487 11.883 1.85912 12.5212C1.88321 12.6102 1.92877 12.6918 1.9918 12.759C2.05484 12.8262 2.13342 12.8769 2.22063 12.9066C2.30784 12.9363 2.40102 12.9442 2.49197 12.9294C2.58293 12.9147 2.66887 12.8779 2.74225 12.8222L8.43756 8.48528V15.75C8.43756 15.8991 8.49682 16.0422 8.60231 16.1477C8.7078 16.2532 8.85088 16.3125 9.00006 16.3125C9.14925 16.3125 9.29232 16.2532 9.39781 16.1477C9.5033 16.0422 9.56256 15.8991 9.56256 15.75V8.48528L15.2579 12.8222C15.3313 12.878 15.4173 12.915 15.5083 12.9298C15.5993 12.9446 15.6926 12.9368 15.7799 12.9071C15.8673 12.8774 15.9459 12.8266 16.009 12.7593C16.0721 12.692 16.1177 12.6103 16.1417 12.5212C16.316 11.883 16.3609 11.2163 16.274 10.5604C16.1871 9.90456 15.97 9.27266 15.6355 8.70184C14.9685 7.55015 13.8717 6.71029 12.586 6.36676L16.539 4.64622C16.6219 4.61009 16.6949 4.55449 16.7518 4.48413C16.8087 4.41377 16.8477 4.33074 16.8657 4.24207C16.8836 4.15339 16.8799 4.0617 16.8548 3.97477C16.8298 3.88784 16.7842 3.80823 16.7218 3.7427H16.7197ZM4.71662 3.37497C5.20851 3.37607 5.69495 3.47811 6.14582 3.67476C6.59669 3.87141 7.00241 4.15849 7.33787 4.51825C7.83912 5.04574 8.18594 5.70071 8.34053 6.41176L2.74225 3.97473C3.32649 3.58377 4.01364 3.37504 4.71662 3.37497ZM2.81256 11.3554C2.7857 10.6236 2.96789 9.89922 3.3378 9.26715C3.59636 8.82092 3.94073 8.43031 4.35105 8.11787C4.76136 7.80543 5.22949 7.57734 5.72842 7.44676C6.06397 7.35724 6.40981 7.31209 6.75709 7.31247C7.14375 7.31243 7.5283 7.36953 7.89826 7.48192L2.81256 11.3554ZM14.6602 9.26715C15.0309 9.899 15.2138 10.6234 15.1876 11.3554L10.104 7.48122C10.954 7.22455 11.8656 7.26111 12.6923 7.58501C13.5191 7.90892 14.2129 8.50137 14.6623 9.26715H14.6602ZM9.65959 6.41176C9.81419 5.70071 10.161 5.04574 10.6622 4.51825C10.9977 4.15849 11.4034 3.87141 11.8543 3.67476C12.3052 3.47811 12.7916 3.37607 13.2835 3.37497C13.9865 3.37504 14.6736 3.58377 15.2579 3.97473L9.65959 6.41176Z" fill="#19052F" fill-opacity="0.5"/>
</svg>
