<svg width="25" height="24" viewBox="0 0 25 24" fill="none" xmlns="http://www.w3.org/2000/svg">
<path d="M3.75875 3.93738C3.67806 4.00732 3.61324 4.09368 3.56862 4.19069C3.524 4.28769 3.5006 4.39311 3.5 4.49988V20.2499C3.5 20.4488 3.57902 20.6396 3.71967 20.7802C3.86032 20.9209 4.05109 20.9999 4.25 20.9999C4.44891 20.9999 4.63968 20.9209 4.78033 20.7802C4.92098 20.6396 5 20.4488 5 20.2499V16.1033C7.51156 14.1196 9.67531 15.1893 12.1672 16.423C13.7047 17.1833 15.3603 18.0027 17.1359 18.0027C18.4419 18.0027 19.8116 17.5574 21.2441 16.3152C21.3247 16.2453 21.3896 16.1589 21.4342 16.0619C21.4788 15.9649 21.5022 15.8595 21.5028 15.7527V4.49988C21.5025 4.35593 21.4607 4.21511 21.3825 4.09424C21.3043 3.97338 21.193 3.87757 21.0618 3.81826C20.9306 3.75895 20.7852 3.73865 20.6428 3.75977C20.5004 3.78089 20.3671 3.84255 20.2587 3.93738C17.6337 6.20895 15.41 5.10832 12.8328 3.83238C10.1628 2.50863 7.13562 1.01145 3.75875 3.93738ZM20 15.3983C17.4884 17.3821 15.3247 16.3114 12.8328 15.0786C10.4891 13.9208 7.88187 12.6289 5 14.2911V4.8552C7.51156 2.87145 9.67531 3.94113 12.1672 5.17395C14.5109 6.33176 17.1191 7.62363 20 5.96145V15.3983Z" fill="#19052F" fill-opacity="0.5"/>
</svg>
