<svg width="170" height="171" viewBox="0 0 170 171" fill="none" xmlns="http://www.w3.org/2000/svg">
<g opacity="0.7">
<g filter="url(#filter0_f_954_71077)">
<circle cx="85" cy="85.5003" r="47.6106" fill="#E2E2E2"/>
</g>
<circle cx="85" cy="85.5" r="53.0237" fill="#F5F6F7" stroke="white" stroke-width="2.95262"/>
<mask id="mask0_954_71077" style="mask-type:alpha" maskUnits="userSpaceOnUse" x="33" y="34" width="104" height="103">
<circle cx="85" cy="85.5006" r="51.3014" fill="white"/>
</mask>
<g mask="url(#mask0_954_71077)">
<path d="M159.629 148.121L163.631 148.121L163.631 113.217L166.813 113.217L166.813 109.214L157.294 109.214L141.84 75.4836L135.93 72.9356L157.128 51.738L166.813 51.738L166.813 49.7369L157.321 49.7369L157.321 25.0574L153.319 25.0574L153.319 28.5593L75.0318 28.5593L75.0318 49.3767L61.258 43.3736L31.4825 43.3736L31.4825 25.0574L29.4815 25.0574L29.4815 43.2936L21.6041 43.2936L21.6041 75.9772L-7.21088 75.9772L-7.21088 25.0107L-11.213 25.0107L-11.213 76.0172L-45.284 76.0172L-45.284 80.0193L21.6041 80.0193L21.6041 91.3118L-0.213931 91.3118L-0.213931 97.4483L1.78711 97.4483L1.78711 93.3128L21.6041 93.3128L21.6041 103.725L-7.07747 130.792L-45.2706 130.792L-45.2706 134.794L-5.50333 134.794L8.07705 121.988L34.2106 148.121L39.8669 148.121L10.9852 119.24L25.6062 105.452L25.6062 64.6446L53.0404 89.8777L53.0404 148.055L55.0414 148.055L55.0414 91.7187L80.528 115.164L80.528 148.121L84.53 148.121L84.53 134.448L159.629 134.448L159.629 148.121ZM79.0339 32.5146L120.996 32.5146L120.996 49.19L122.997 49.19L122.997 32.5146L153.319 32.5146L153.319 49.8903L131.781 71.4548L79.0872 50.524L79.0339 32.5146ZM25.6062 59.1951L25.6062 47.309L60.4109 47.309L97.2233 61.7431L80.548 101.857L80.548 109.721L25.6062 59.1951ZM84.53 130.445L84.53 102.758L100.718 63.0238C102.293 63.6241 138.738 78.2584 138.738 78.2584L148.743 100.056L118.334 130.445L84.53 130.445ZM121.162 130.445L149.584 102.031L154.726 113.25L159.629 113.25L159.629 130.445L121.162 130.445Z" fill="white"/>
<path opacity="0.3" d="M129.994 115.131L123.417 121.987L116.173 113.676L109.663 113.676L117.134 99.0156L129.994 115.131Z" fill="#E3E3E3"/>
<path opacity="0.4" d="M80.3106 97.199C80.3106 100.198 82.7415 102.628 85.7401 102.628C88.7387 102.628 91.1695 100.198 91.1695 97.199C91.1695 94.2004 88.7387 91.7695 85.7401 91.7695C82.7415 91.7695 80.3106 94.2004 80.3106 97.199Z" fill="#E3E3E3"/>
<path d="M85.74 99.865C85.2128 99.865 84.6973 99.7087 84.2589 99.4157C83.8205 99.1228 83.4788 98.7065 83.2771 98.2193C83.0753 97.7322 83.0225 97.1962 83.1254 96.679C83.2282 96.1619 83.4821 95.6869 83.8549 95.314C84.2278 94.9412 84.7028 94.6873 85.2199 94.5844C85.7371 94.4816 86.2731 94.5344 86.7602 94.7361C87.2474 94.9379 87.6637 95.2796 87.9566 95.718C88.2496 96.1564 88.4059 96.6718 88.4059 97.1991C88.4034 97.9054 88.1217 98.582 87.6223 99.0814C87.1229 99.5808 86.4463 99.8625 85.74 99.865Z" fill="#E3E3E3"/>
<path d="M132.081 73.732C132.081 73.4667 132.187 73.2124 132.374 73.0249C132.563 72.8385 132.816 72.7331 133.081 72.7314C133.347 72.7317 133.601 72.8372 133.788 73.0249C133.968 73.2165 134.068 73.4693 134.068 73.732C134.068 73.9946 133.968 74.2474 133.788 74.439C133.601 74.6267 133.347 74.7322 133.081 74.7325C132.816 74.7325 132.561 74.6271 132.374 74.4394C132.186 74.2518 132.081 73.9973 132.081 73.732Z" fill="#E3E3E3"/>
<path d="M128.64 72.229C128.639 72.0974 128.664 71.9669 128.714 71.8451C128.764 71.7233 128.838 71.6127 128.931 71.5196C129.024 71.4265 129.135 71.3529 129.256 71.3029C129.378 71.2529 129.509 71.2277 129.64 71.2285C129.707 71.2285 129.774 71.2285 129.84 71.2285C129.904 71.2425 129.967 71.2626 130.027 71.2886C130.088 71.313 130.147 71.3443 130.201 71.382C130.255 71.4182 130.306 71.4583 130.354 71.502C130.531 71.6951 130.629 71.9473 130.629 72.209C130.629 72.4708 130.531 72.723 130.354 72.9161C130.308 72.9638 130.256 73.0063 130.201 73.0428C130.147 73.0804 130.088 73.1117 130.027 73.1362C129.905 73.1899 129.774 73.2172 129.64 73.2162C129.509 73.2152 129.378 73.1882 129.257 73.1367C129.136 73.0852 129.026 73.0102 128.933 72.9161C128.752 72.7328 128.647 72.4871 128.64 72.229Z" fill="#E3E3E3"/>
<path d="M26.9013 44.3137C27.1666 44.3137 27.4211 44.4192 27.6087 44.6068C27.7964 44.7944 27.9018 45.0489 27.9018 45.3143C27.9018 45.5796 27.7964 45.8341 27.6087 46.0217C27.4211 46.2094 27.1666 46.3148 26.9013 46.3148C26.6359 46.3148 26.3815 46.2094 26.1938 46.0217C26.0062 45.8341 25.9008 45.5796 25.9008 45.3143C25.9008 45.0489 26.0062 44.7944 26.1938 44.6068C26.3815 44.4192 26.6359 44.3137 26.9013 44.3137ZM30.2697 44.3137C30.535 44.3137 30.7895 44.4192 30.9771 44.6068C31.1648 44.7944 31.2702 45.0489 31.2702 45.3143C31.2702 45.5796 31.1648 45.8341 30.9771 46.0217C30.7895 46.2094 30.535 46.3148 30.2697 46.3148C30.0043 46.3148 29.7498 46.2094 29.5622 46.0217C29.3746 45.8341 29.2692 45.5796 29.2692 45.3143C29.2692 45.0489 29.3746 44.7944 29.5622 44.6068C29.7498 44.4192 30.0043 44.3137 30.2697 44.3137ZM33.638 44.3137C33.9034 44.3137 34.1579 44.4192 34.3455 44.6068C34.5331 44.7944 34.6386 45.0489 34.6386 45.3143C34.6386 45.5796 34.5331 45.8341 34.3455 46.0217C34.1579 46.2094 33.9034 46.3148 33.638 46.3148C33.3727 46.3148 33.1182 46.2094 32.9306 46.0217C32.743 45.8341 32.6375 45.5796 32.6375 45.3143C32.6375 45.0489 32.743 44.7944 32.9306 44.6068C33.1182 44.4192 33.3727 44.3137 33.638 44.3137ZM37.0064 44.3137C37.2718 44.3137 37.5263 44.4192 37.7139 44.6068C37.9016 44.7944 38.007 45.0489 38.007 45.3143C38.007 45.5796 37.9016 45.8341 37.7139 46.0217C37.5263 46.2094 37.2718 46.3148 37.0064 46.3148C36.7411 46.3148 36.4866 46.2094 36.299 46.0217C36.1113 45.8341 36.0059 45.5796 36.0059 45.3143C36.0059 45.0489 36.1113 44.7944 36.299 44.6068C36.4866 44.4192 36.7411 44.3137 37.0064 44.3137ZM40.3415 44.3137C40.6068 44.3137 40.8613 44.4192 41.049 44.6068C41.2366 44.7944 41.342 45.0489 41.342 45.3143C41.342 45.5796 41.2366 45.8341 41.049 46.0217C40.8613 46.2094 40.6068 46.3148 40.3415 46.3148C40.0761 46.3148 39.8216 46.2094 39.634 46.0217C39.4464 45.8341 39.341 45.5796 39.341 45.3143C39.3407 45.1777 39.3684 45.0425 39.4224 44.917C39.4764 44.7915 39.5555 44.6784 39.6549 44.5847C39.7543 44.491 39.8718 44.4186 40.0002 44.372C40.1286 44.3254 40.2652 44.3055 40.4015 44.3137L40.3415 44.3137ZM43.7099 44.3137C43.9752 44.3137 44.2297 44.4192 44.4173 44.6068C44.605 44.7944 44.7104 45.0489 44.7104 45.3143C44.7104 45.5796 44.605 45.8341 44.4173 46.0217C44.2297 46.2094 43.9752 46.3148 43.7099 46.3148C43.4445 46.3148 43.19 46.2094 43.0024 46.0217C42.8148 45.8341 42.7094 45.5796 42.7094 45.3143C42.7093 45.1806 42.736 45.0483 42.788 44.9251C42.8399 44.802 42.916 44.6904 43.0118 44.5972C43.1075 44.5039 43.221 44.4308 43.3455 44.3821C43.47 44.3334 43.6029 44.3102 43.7365 44.3137L43.7099 44.3137ZM47.0783 44.3137C47.3436 44.3137 47.5981 44.4192 47.7857 44.6068C47.9733 44.7944 48.0788 45.0489 48.0788 45.3143C48.0788 45.5796 47.9733 45.8341 47.7857 46.0217C47.5981 46.2094 47.3436 46.3148 47.0783 46.3148C46.8129 46.3148 46.5584 46.2094 46.3708 46.0217C46.1832 45.8341 46.0777 45.5796 46.0777 45.3143C46.0777 45.18 46.1046 45.0471 46.157 44.9235C46.2093 44.7999 46.286 44.6881 46.3825 44.5947C46.4789 44.5014 46.5932 44.4284 46.7185 44.3801C46.8437 44.3318 46.9774 44.3093 47.1116 44.3137L47.0783 44.3137ZM50.4466 44.3137C50.7126 44.3137 50.9678 44.4189 51.1565 44.6064C51.3452 44.7938 51.4521 45.0483 51.4538 45.3143C51.4521 45.5802 51.3452 45.8347 51.1565 46.0221C50.9678 46.2096 50.7126 46.3148 50.4466 46.3148C50.1813 46.3148 49.9268 46.2094 49.7392 46.0217C49.5515 45.8341 49.4461 45.5796 49.4461 45.3143C49.446 45.18 49.473 45.0471 49.5253 44.9235C49.5777 44.7999 49.6544 44.6881 49.7509 44.5947C49.8473 44.5014 49.9616 44.4284 50.0869 44.3801C50.2121 44.3318 50.3458 44.3093 50.48 44.3137L50.4466 44.3137ZM53.8217 44.3137C54.087 44.3137 54.3415 44.4192 54.5292 44.6068C54.7168 44.7944 54.8222 45.0489 54.8222 45.3143C54.8222 45.5796 54.7168 45.8341 54.5292 46.0217C54.3415 46.2094 54.087 46.3148 53.8217 46.3148C53.5563 46.3148 53.3018 46.2094 53.1142 46.0217C52.9266 45.8341 52.8212 45.5796 52.8212 45.3143C52.8211 45.18 52.848 45.0471 52.9004 44.9235C52.9528 44.7999 53.0294 44.6881 53.1259 44.5947C53.2224 44.5014 53.3366 44.4284 53.4619 44.3801C53.5872 44.3318 53.7209 44.3093 53.855 44.3137L53.8217 44.3137ZM57.1901 44.3137C57.4554 44.3137 57.7099 44.4192 57.8975 44.6068C58.0852 44.7944 58.1906 45.0489 58.1906 45.3143C58.1906 45.5796 58.0852 45.8341 57.8975 46.0217C57.7099 46.2094 57.4554 46.3148 57.1901 46.3148C56.9247 46.3148 56.6702 46.2094 56.4826 46.0217C56.295 45.8341 56.1896 45.5796 56.1896 45.3143C56.1895 45.18 56.2164 45.0471 56.2688 44.9235C56.3211 44.7999 56.3978 44.6881 56.4943 44.5947C56.5908 44.5014 56.705 44.4284 56.8303 44.3801C56.9556 44.3318 57.0893 44.3093 57.2234 44.3137L57.1901 44.3137ZM60.5251 44.3137C60.7905 44.3137 61.0449 44.4192 61.2326 44.6068C61.4202 44.7944 61.5256 45.0489 61.5256 45.3143C61.5256 45.5796 61.4202 45.8341 61.2326 46.0217C61.0449 46.2094 60.7905 46.3148 60.5251 46.3148C60.2598 46.3148 60.0053 46.2094 59.8176 46.0217C59.63 45.8341 59.5246 45.5796 59.5246 45.3143C59.5243 45.1771 59.5522 45.0413 59.6066 44.9153C59.661 44.7894 59.7407 44.676 59.8408 44.5821C59.9409 44.4883 60.0592 44.416 60.1884 44.3699C60.3176 44.3237 60.4549 44.3046 60.5918 44.3137L60.5251 44.3137ZM62.7462 46.108C62.843 45.8615 63.0335 45.6634 63.2761 45.5571C63.5186 45.4508 63.7934 45.4451 64.0402 45.541C64.2872 45.6392 64.4854 45.831 64.5916 46.0746C64.6978 46.3182 64.7034 46.594 64.6072 46.8417C64.5104 47.0882 64.3199 47.2863 64.0774 47.3926C63.8348 47.4989 63.56 47.5046 63.3132 47.4087C63.1202 47.3394 62.9529 47.2129 62.8337 47.046C62.7145 46.8792 62.6491 46.6799 62.6462 46.4749C62.677 46.3428 62.7337 46.2181 62.8129 46.108L62.7462 46.108ZM65.8812 47.3353C65.9779 47.0888 66.1685 46.8907 66.411 46.7844C66.6536 46.6781 66.9284 46.6724 67.1752 46.7683C67.2984 46.8148 67.411 46.8853 67.5065 46.976C67.602 47.0666 67.6784 47.1753 67.7312 47.2959C67.784 47.4165 67.8122 47.5464 67.8141 47.678C67.816 47.8096 67.7915 47.9403 67.7421 48.0623C67.6957 48.1855 67.6251 48.2982 67.5345 48.3936C67.4439 48.4891 67.3351 48.5655 67.2145 48.6184C67.094 48.6712 66.9641 48.6994 66.8324 48.7013C66.7008 48.7031 66.5701 48.6787 66.4481 48.6293C66.2613 48.5566 66.1009 48.4293 65.9878 48.2638C65.8747 48.0983 65.8143 47.9026 65.8145 47.7021C65.8348 47.5724 65.8801 47.4478 65.9479 47.3353L65.8812 47.3353ZM69.0228 48.5626C69.1195 48.3161 69.3101 48.118 69.5526 48.0117C69.7952 47.9054 70.07 47.8997 70.3168 47.9956C70.5633 48.0924 70.7614 48.2829 70.8677 48.5255C70.9739 48.768 70.9797 49.0428 70.8837 49.2896C70.8366 49.4122 70.7655 49.5243 70.6748 49.6193C70.584 49.7143 70.4753 49.7903 70.355 49.8431C70.2347 49.8958 70.1051 49.9241 69.9737 49.9264C69.8424 49.9288 69.7119 49.905 69.5897 49.8566C69.3962 49.7902 69.228 49.6654 69.1085 49.4993C68.989 49.3332 68.9241 49.1341 68.9227 48.9294C68.9508 48.7976 69.0053 48.6728 69.0828 48.5626L69.0228 48.5626ZM72.1577 49.7899C72.2544 49.5434 72.445 49.3453 72.6875 49.239C72.9301 49.1327 73.2049 49.1269 73.4517 49.2229C73.5744 49.2702 73.6865 49.3412 73.7817 49.4318C73.8769 49.5224 73.9534 49.6309 74.0066 49.751C74.0599 49.8712 74.089 50.0007 74.0922 50.1321C74.0954 50.2635 74.0727 50.3943 74.0253 50.5169C73.9272 50.7639 73.7354 50.9621 73.4918 51.0683C73.2481 51.1745 72.9724 51.1801 72.7247 51.0839C72.5379 51.0112 72.3774 50.8838 72.2643 50.7184C72.1513 50.5529 72.0908 50.3571 72.091 50.1567C72.1108 50.0268 72.1561 49.9021 72.2244 49.7899L72.1577 49.7899ZM75.2926 51.0172C75.341 50.8908 75.4144 50.7755 75.5083 50.6782C75.6022 50.5808 75.7148 50.5033 75.8393 50.4504C75.9638 50.3975 76.0977 50.3702 76.2329 50.3702C76.3682 50.3701 76.5021 50.3974 76.6267 50.4502C76.8732 50.547 77.0713 50.7375 77.1775 50.98C77.2838 51.2226 77.2896 51.4974 77.1936 51.7442C77.0969 51.9907 76.9063 52.1888 76.6638 52.2951C76.4212 52.4014 76.1464 52.4071 75.8996 52.3112C75.7061 52.2427 75.5382 52.1164 75.4189 51.9494C75.2996 51.7823 75.2346 51.5826 75.2326 51.3773C75.2508 51.2501 75.2939 51.1278 75.3593 51.0172L75.2926 51.0172ZM78.4342 52.2445C78.4815 52.1218 78.5525 52.0097 78.6431 51.9144C78.7337 51.8192 78.8422 51.7428 78.9624 51.6895C79.0825 51.6362 79.212 51.6072 79.3435 51.604C79.4749 51.6008 79.6056 51.6235 79.7282 51.6708C79.8546 51.7192 79.9699 51.7926 80.0672 51.8865C80.1646 51.9804 80.2421 52.093 80.295 52.2175C80.3479 52.342 80.3752 52.4758 80.3752 52.6111C80.3753 52.7464 80.348 52.8803 80.2952 53.0048C80.1984 53.2514 80.0079 53.4495 79.7654 53.5557C79.5228 53.662 79.248 53.6678 79.0012 53.5718C78.8139 53.498 78.6532 53.3694 78.5402 53.2028C78.4271 53.0362 78.3669 52.8393 78.3675 52.638C78.3834 52.4988 78.4289 52.3646 78.5009 52.2445L78.4342 52.2445ZM81.5758 53.4651C81.6726 53.2186 81.8631 53.0205 82.1057 52.9142C82.3482 52.8079 82.623 52.8021 82.8698 52.8981C83.1168 52.9963 83.315 53.188 83.4212 53.4317C83.5274 53.6753 83.533 53.951 83.4368 54.1988C83.34 54.4453 83.1495 54.6434 82.907 54.7497C82.6644 54.8559 82.3896 54.8617 82.1428 54.7658C81.9492 54.6973 81.7814 54.571 81.6621 54.404C81.5428 54.2369 81.4777 54.0372 81.4758 53.8319C81.503 53.6986 81.56 53.5732 81.6425 53.4651L81.5758 53.4651ZM84.7108 54.6924C84.8075 54.4459 84.9981 54.2478 85.2406 54.1415C85.4832 54.0352 85.758 54.0294 86.0048 54.1254C86.1274 54.1726 86.2394 54.2436 86.3344 54.3344C86.4294 54.4251 86.5055 54.5338 86.5582 54.6541C86.6109 54.7745 86.6393 54.9041 86.6416 55.0354C86.6439 55.1668 86.6202 55.2973 86.5717 55.4194C86.5245 55.5421 86.4535 55.6542 86.3629 55.7494C86.2723 55.8446 86.1638 55.9211 86.0436 55.9744C85.9234 56.0276 85.7939 56.0567 85.6625 56.0599C85.5311 56.0631 85.4004 56.0404 85.2777 55.993C85.0909 55.9185 84.9308 55.7897 84.8178 55.6232C84.7049 55.4568 84.6444 55.2604 84.6441 55.0592C84.6644 54.9295 84.7097 54.8049 84.7775 54.6924L84.7108 54.6924ZM87.8457 55.9197C87.8941 55.7933 87.9674 55.678 88.0613 55.5807C88.1553 55.4833 88.2678 55.4058 88.3923 55.3529C88.5168 55.3 88.6507 55.2727 88.786 55.2727C88.9213 55.2726 89.0552 55.2999 89.1797 55.3527C89.4262 55.4495 89.6243 55.64 89.7306 55.8826C89.8369 56.1251 89.8427 56.3999 89.7467 56.6467C89.6995 56.7701 89.6283 56.8829 89.5371 56.9785C89.4458 57.074 89.3365 57.1504 89.2154 57.2032C89.0943 57.256 88.9638 57.2841 88.8317 57.2859C88.6996 57.2877 88.5685 57.2631 88.446 57.2137C88.253 57.1465 88.0854 57.0214 87.966 56.8555C87.8467 56.6896 87.7814 56.4909 87.779 56.2865C87.7988 56.1566 87.8441 56.0319 87.9124 55.9197L87.8457 55.9197ZM90.9873 57.147C91.0841 56.9004 91.2746 56.7023 91.5171 56.5961C91.7597 56.4898 92.0345 56.484 92.2813 56.58C92.5278 56.6768 92.7259 56.8673 92.8322 57.1098C92.9385 57.3524 92.9442 57.6272 92.8483 57.874C92.7515 58.1205 92.561 58.3186 92.3184 58.4249C92.0759 58.5312 91.8011 58.5369 91.5543 58.4409C91.367 58.3671 91.2063 58.2385 91.0932 58.0719C90.9802 57.9053 90.92 57.7085 90.9206 57.5071C90.9409 57.3795 90.9862 57.257 91.054 57.147L90.9873 57.147ZM94.1222 58.3743C94.1706 58.2479 94.244 58.1326 94.3379 58.0353C94.4318 57.9379 94.5444 57.8604 94.6689 57.8075C94.7934 57.7546 94.9273 57.7273 95.0625 57.7273C95.1978 57.7272 95.3317 57.7545 95.4563 57.8073C95.7028 57.904 95.9009 58.0946 96.0071 58.3371C96.1134 58.5797 96.1192 58.8545 96.0232 59.1013C95.9265 59.3478 95.7359 59.5459 95.4934 59.6522C95.2508 59.7585 94.976 59.7642 94.7292 59.6683C94.5357 59.5998 94.3679 59.4735 94.2485 59.3065C94.1292 59.1394 94.0642 58.9397 94.0622 58.7344C94.0845 58.6188 94.1274 58.5081 94.1889 58.4076L94.1222 58.3743ZM97.2638 59.6016C97.3103 59.4784 97.3809 59.3657 97.4715 59.2702C97.5621 59.1747 97.6708 59.0983 97.7914 59.0455C97.912 58.9927 98.0419 58.9645 98.1735 58.9626C98.3052 58.9608 98.4358 58.9852 98.5578 59.0346C98.6805 59.0818 98.7925 59.1528 98.8875 59.2435C98.9825 59.3343 99.0585 59.443 99.1113 59.5633C99.164 59.6836 99.1923 59.8132 99.1947 59.9446C99.197 60.0759 99.1732 60.2065 99.1248 60.3286C99.028 60.5751 98.8375 60.7732 98.595 60.8795C98.3524 60.9857 98.0776 60.9915 97.8308 60.8955C97.6435 60.8217 97.4828 60.6931 97.3698 60.5265C97.2567 60.3599 97.1965 60.1631 97.1971 59.9617C97.2174 59.834 97.2628 59.7116 97.3305 59.6016L97.2638 59.6016ZM100.399 60.8222C100.497 60.5752 100.689 60.377 100.932 60.2708C101.176 60.1646 101.452 60.159 101.699 60.2552C101.826 60.3036 101.941 60.3769 102.038 60.4709C102.136 60.5648 102.213 60.6773 102.266 60.8018C102.319 60.9263 102.346 61.0602 102.346 61.1955C102.346 61.3308 102.319 61.4647 102.266 61.5892C102.168 61.8362 101.976 62.0344 101.733 62.1406C101.489 62.2468 101.213 62.2524 100.966 62.1562C100.772 62.0878 100.604 61.9615 100.485 61.7944C100.366 61.6274 100.301 61.4277 100.299 61.2224C100.315 61.0811 100.36 60.9447 100.432 60.8222L100.399 60.8222ZM103.54 62.0495C103.637 61.8029 103.828 61.6049 104.07 61.4986C104.313 61.3923 104.588 61.3865 104.834 61.4825C105.081 61.5792 105.279 61.7698 105.385 62.0123C105.492 62.2549 105.497 62.5297 105.401 62.7765C105.355 62.8997 105.284 63.0123 105.194 63.1078C105.103 63.2033 104.994 63.2797 104.874 63.3325C104.753 63.3854 104.623 63.4136 104.492 63.4154C104.36 63.4173 104.229 63.3928 104.107 63.3435C103.914 63.2763 103.747 63.1512 103.627 62.9853C103.508 62.8194 103.443 62.6207 103.44 62.4163C103.471 62.2841 103.528 62.1594 103.607 62.0495L103.54 62.0495ZM106.675 63.2767C106.773 63.0298 106.965 62.8316 107.209 62.7254C107.452 62.6192 107.728 62.6136 107.976 62.7098C108.222 62.8066 108.421 62.9971 108.527 63.2396C108.633 63.4822 108.639 63.757 108.543 64.0038C108.496 64.1264 108.425 64.2385 108.334 64.3335C108.243 64.4285 108.135 64.5045 108.014 64.5572C107.894 64.61 107.764 64.6383 107.633 64.6406C107.502 64.6429 107.371 64.6192 107.249 64.5707C107.055 64.5044 106.887 64.3795 106.768 64.2134C106.648 64.0473 106.583 63.8482 106.582 63.6436C106.61 63.5117 106.664 63.3869 106.742 63.2767L106.675 63.2767ZM109.817 64.5041C109.914 64.2575 110.104 64.0594 110.347 63.9532C110.589 63.8469 110.864 63.8411 111.111 63.9371C111.357 64.0338 111.556 64.2244 111.662 64.4669C111.768 64.7095 111.774 64.9843 111.678 65.2311C111.581 65.4776 111.391 65.6757 111.148 65.782C110.905 65.8882 110.631 65.894 110.384 65.798C110.191 65.73 110.024 65.6047 109.905 65.439C109.786 65.2733 109.72 65.075 109.717 64.8709C109.747 64.7386 109.804 64.6138 109.884 64.5041L109.817 64.5041ZM112.952 65.7313C113 65.6085 113.071 65.4963 113.163 65.4012C113.254 65.3062 113.363 65.2301 113.484 65.1774C113.605 65.1247 113.735 65.0965 113.867 65.0942C113.999 65.092 114.13 65.1158 114.253 65.1644C114.499 65.2611 114.697 65.4517 114.803 65.6942C114.91 65.9368 114.915 66.2116 114.819 66.4584C114.721 66.7054 114.53 66.9036 114.286 67.0098C114.042 67.116 113.767 67.1216 113.519 67.0253C113.331 66.9515 113.171 66.8229 113.058 66.6563C112.945 66.4897 112.885 66.2929 112.885 66.0915C112.907 65.9685 112.952 65.8507 113.019 65.7447L112.952 65.7313ZM116.093 66.952C116.19 66.7054 116.381 66.5074 116.623 66.4011C116.866 66.2948 117.141 66.289 117.387 66.385C117.514 66.4334 117.629 66.5067 117.726 66.6006C117.824 66.6946 117.901 66.8071 117.954 66.9316C118.007 67.0561 118.034 67.19 118.034 67.3253C118.034 67.4606 118.007 67.5945 117.954 67.719C117.858 67.9655 117.667 68.1636 117.425 68.2699C117.182 68.3762 116.907 68.382 116.66 68.286C116.467 68.2176 116.299 68.0912 116.18 67.9242C116.06 67.7571 115.995 67.5574 115.993 67.3522C116.019 67.2083 116.076 67.0718 116.16 66.952L116.093 66.952ZM119.228 68.1793C119.327 67.9323 119.518 67.7341 119.762 67.6279C120.006 67.5217 120.281 67.5161 120.529 67.6123C120.776 67.7104 120.974 67.9022 121.08 68.1458C121.187 68.3895 121.192 68.6652 121.096 68.913C121.048 69.0393 120.974 69.1546 120.88 69.252C120.786 69.3493 120.674 69.4268 120.549 69.4797C120.425 69.5326 120.291 69.5599 120.156 69.5599C120.02 69.56 119.887 69.5328 119.762 69.4799C119.575 69.4061 119.414 69.2775 119.301 69.1109C119.188 68.9443 119.128 68.7475 119.128 68.5461C119.159 68.4139 119.216 68.2891 119.295 68.1793L119.228 68.1793ZM122.37 69.4065C122.467 69.16 122.657 68.9619 122.9 68.8557C123.142 68.7494 123.417 68.7436 123.664 68.8396C123.911 68.9377 124.109 69.1295 124.215 69.3731C124.322 69.6168 124.327 69.8925 124.231 70.1403C124.134 70.3868 123.944 70.5849 123.701 70.6912C123.459 70.7974 123.184 70.8032 122.937 70.7072C122.744 70.6372 122.578 70.5105 122.459 70.3438C122.34 70.1771 122.274 69.9782 122.27 69.7734C122.303 69.6408 122.362 69.5161 122.443 69.4065L122.37 69.4065ZM125.505 70.6338C125.603 70.3868 125.795 70.1887 126.038 70.0825C126.282 69.9763 126.558 69.9707 126.806 70.0669C127.052 70.1636 127.25 70.3542 127.356 70.5967C127.463 70.8393 127.469 71.1141 127.373 71.3609C127.325 71.4878 127.252 71.6037 127.158 71.7016C127.065 71.7995 126.952 71.8773 126.827 71.9304C126.702 71.9834 126.568 72.0105 126.433 72.0101C126.297 72.0096 126.163 71.9816 126.039 71.9278C125.852 71.8552 125.691 71.7278 125.578 71.5623C125.465 71.3969 125.405 71.2011 125.405 71.0007C125.435 70.8685 125.492 70.7437 125.572 70.6338L125.505 70.6338Z" fill="#E3E3E3"/>
</g>
<path fill-rule="evenodd" clip-rule="evenodd" d="M73.067 79.6373C73.067 72.8871 78.9468 67.415 86.1999 67.415C93.453 67.415 99.3328 72.8871 99.3328 79.6373C99.3328 86.3346 95.1412 94.1497 88.6015 96.9445C87.0769 97.596 85.3228 97.596 83.7983 96.9445C77.2586 94.1497 73.067 86.3346 73.067 79.6373ZM86.1999 84.3002C88.2722 84.3002 89.9521 82.6203 89.9521 80.5479C89.9521 78.4756 88.2722 76.7957 86.1999 76.7957C84.1276 76.7957 82.4476 78.4756 82.4476 80.5479C82.4476 82.6203 84.1276 84.3002 86.1999 84.3002Z" fill="url(#paint0_linear_954_71077)"/>
<circle cx="86.3042" cy="80.4439" r="4.06495" fill="white"/>
</g>
<defs>
<filter id="filter0_f_954_71077" x="0.481609" y="0.981869" width="169.037" height="169.037" filterUnits="userSpaceOnUse" color-interpolation-filters="sRGB">
<feFlood flood-opacity="0" result="BackgroundImageFix"/>
<feBlend mode="normal" in="SourceGraphic" in2="BackgroundImageFix" result="shape"/>
<feGaussianBlur stdDeviation="18.4539" result="effect1_foregroundBlur_954_71077"/>
</filter>
<linearGradient id="paint0_linear_954_71077" x1="86.1999" y1="67.415" x2="86.1999" y2="97.4331" gradientUnits="userSpaceOnUse">
<stop stop-color="#DDDDDD"/>
<stop offset="1" stop-color="#AAAAAA"/>
</linearGradient>
</defs>
</svg>
