<svg width="19" height="19" viewBox="0 0 19 19" fill="none" xmlns="http://www.w3.org/2000/svg">
<path d="M14.936 10.0828L10.904 8.59844L9.41958 4.56328C9.33168 4.32448 9.17264 4.11838 8.96393 3.9728C8.75521 3.82722 8.50687 3.74917 8.25239 3.74917C7.99792 3.74917 7.74958 3.82722 7.54086 3.9728C7.33215 4.11838 7.17311 4.32448 7.08521 4.56328L5.59927 8.59375L1.56411 10.0781C1.32531 10.166 1.11921 10.3251 0.973634 10.5338C0.828055 10.7425 0.75 10.9908 0.75 11.2453C0.75 11.4998 0.828055 11.7481 0.973634 11.9568C1.11921 12.1656 1.32531 12.3246 1.56411 12.4125L5.5938 13.9062L7.07818 17.9391C7.16608 18.1779 7.32512 18.384 7.53383 18.5295C7.74255 18.6751 7.99089 18.7532 8.24536 18.7532C8.49983 18.7532 8.74818 18.6751 8.95689 18.5295C9.16561 18.384 9.32465 18.1779 9.41255 17.9391L10.8969 13.907L14.9321 12.4227C15.1709 12.3348 15.377 12.1757 15.5226 11.967C15.6681 11.7583 15.7462 11.5099 15.7462 11.2555C15.7462 11.001 15.6681 10.7527 15.5226 10.5439C15.377 10.3352 15.1709 10.1762 14.9321 10.0883L14.936 10.0828ZM10.468 12.7344C10.2991 12.7964 10.1457 12.8944 10.0185 13.0216C9.8913 13.1488 9.79329 13.3022 9.7313 13.4711L8.24693 17.4914L6.76568 13.468C6.70364 13.3 6.60594 13.1474 6.4793 13.0208C6.35266 12.8941 6.20009 12.7964 6.03208 12.7344L2.01177 11.25L6.03208 9.76562C6.20009 9.70359 6.35266 9.60589 6.4793 9.47925C6.60594 9.35261 6.70364 9.20004 6.76568 9.03203L8.25005 5.01172L9.73443 9.03203C9.79642 9.20093 9.89443 9.35431 10.0216 9.48153C10.1489 9.60875 10.3022 9.70676 10.4711 9.76875L14.4915 11.2531L10.468 12.7344ZM10.7501 3.125C10.7501 2.95924 10.8159 2.80027 10.9331 2.68306C11.0503 2.56585 11.2093 2.5 11.3751 2.5H12.6251V1.25C12.6251 1.08424 12.6909 0.925268 12.8081 0.808058C12.9253 0.690848 13.0843 0.625 13.2501 0.625C13.4158 0.625 13.5748 0.690848 13.692 0.808058C13.8092 0.925268 13.8751 1.08424 13.8751 1.25V2.5H15.1251C15.2908 2.5 15.4498 2.56585 15.567 2.68306C15.6842 2.80027 15.7501 2.95924 15.7501 3.125C15.7501 3.29076 15.6842 3.44973 15.567 3.56694C15.4498 3.68415 15.2908 3.75 15.1251 3.75H13.8751V5C13.8751 5.16576 13.8092 5.32473 13.692 5.44194C13.5748 5.55915 13.4158 5.625 13.2501 5.625C13.0843 5.625 12.9253 5.55915 12.8081 5.44194C12.6909 5.32473 12.6251 5.16576 12.6251 5V3.75H11.3751C11.2093 3.75 11.0503 3.68415 10.9331 3.56694C10.8159 3.44973 10.7501 3.29076 10.7501 3.125ZM18.8751 6.875C18.8751 7.04076 18.8092 7.19973 18.692 7.31694C18.5748 7.43415 18.4158 7.5 18.2501 7.5H17.6251V8.125C17.6251 8.29076 17.5592 8.44973 17.442 8.56694C17.3248 8.68415 17.1658 8.75 17.0001 8.75C16.8343 8.75 16.6753 8.68415 16.5581 8.56694C16.4409 8.44973 16.3751 8.29076 16.3751 8.125V7.5H15.7501C15.5843 7.5 15.4253 7.43415 15.3081 7.31694C15.1909 7.19973 15.1251 7.04076 15.1251 6.875C15.1251 6.70924 15.1909 6.55027 15.3081 6.43306C15.4253 6.31585 15.5843 6.25 15.7501 6.25H16.3751V5.625C16.3751 5.45924 16.4409 5.30027 16.5581 5.18306C16.6753 5.06585 16.8343 5 17.0001 5C17.1658 5 17.3248 5.06585 17.442 5.18306C17.5592 5.30027 17.6251 5.45924 17.6251 5.625V6.25H18.2501C18.4158 6.25 18.5748 6.31585 18.692 6.43306C18.8092 6.55027 18.8751 6.70924 18.8751 6.875Z" fill="white" fill-opacity="0.95"/>
</svg>
